<svg xmlns="http://www.w3.org/2000/svg" xmlns:xlink="http://www.w3.org/1999/xlink" width="7000" zoomAndPan="magnify" viewBox="0 0 5250 1499.999933" height="2000" preserveAspectRatio="xMidYMid meet" version="1.0"><defs fill="#ffffff"><g/><clipPath id="5c7f536e9d" fill="#ffffff"><path d="M 674.648438 67.824219 L 2034.398438 67.824219 L 2034.398438 1427.574219 L 674.648438 1427.574219 Z M 674.648438 67.824219 " clip-rule="nonzero" fill="#ffffff"/></clipPath></defs><g clip-path="url(#5c7f536e9d)"><path fill="#042732" d="M 674.144531 747.53125 C 674.144531 372.074219 978.566406 67.65625 1354.1875 67.65625 C 1729.8125 67.65625 2034.0625 372.074219 2034.0625 747.53125 C 2034.0625 1122.984375 1729.644531 1427.40625 1354.1875 1427.40625 C 978.734375 1427.40625 674.144531 1122.984375 674.144531 747.53125 Z M 674.144531 747.53125 " fill-opacity="1" fill-rule="nonzero"/></g><path fill="#ffffff" d="M 1345.140625 166.839844 L 1356.871094 167.339844 L 1356.871094 272.722656 L 1350 272.222656 C 1269.582031 272.222656 1193.519531 293.164062 1121.476562 334.878906 C 1049.433594 376.597656 993.308594 433.058594 952.933594 503.761719 C 937.851562 530.230469 925.457031 558.042969 915.90625 586.859375 L 908.867188 618.691406 L 1355.527344 618.691406 L 1355.527344 711.84375 L 1354.523438 711.84375 L 1354.523438 1013.414062 L 1357.035156 1013.082031 L 1357.035156 1172.914062 L 1308.449219 1178.105469 C 1205.078125 1178.105469 1117.621094 1135.886719 1046.082031 1051.445312 C 974.542969 967.007812 938.691406 864.472656 938.691406 744.011719 C 938.859375 743.175781 938.859375 742.503906 939.027344 741.667969 L 1069.371094 741.667969 C 1069.203125 742.503906 1039.382812 740.324219 1039.382812 741.164062 C 1039.382812 817.058594 1073.558594 907.53125 1110.082031 960.640625 C 1146.605469 1013.75 1212.28125 1049.769531 1259.027344 1059.824219 L 1261.875 1000.683594 L 1261.875 711.675781 L 781.875 711.675781 L 784.890625 664.097656 C 794.273438 588.871094 818.0625 517.832031 855.925781 451.152344 C 906.355469 362.191406 975.214844 292.492188 1062.335938 242.230469 C 1149.457031 191.96875 1243.78125 166.839844 1345.140625 166.839844 Z M 1345.140625 166.839844 " fill-opacity="1" fill-rule="nonzero"/><path fill="#ffffff" d="M 1478.671875 806.167969 L 1478.671875 1205.082031 L 1502.796875 1199.550781 C 1531.445312 1190 1559.257812 1177.4375 1586.0625 1162.191406 C 1657.769531 1121.144531 1713.726562 1065.183594 1753.9375 994.148438 C 1784.09375 940.871094 1802.859375 883.070312 1810.398438 820.914062 L 1811.234375 806.167969 Z M 1478.671875 461.039062 L 1478.671875 728.261719 L 1519.550781 721.898438 C 1539.152344 715.363281 1556.910156 705.476562 1572.996094 692.242188 C 1605.332031 665.9375 1621.414062 633.4375 1621.414062 594.734375 C 1621.414062 556.367188 1605.164062 523.699219 1572.660156 497.058594 C 1556.410156 483.824219 1538.480469 473.769531 1518.710938 467.070312 Z M 1455.214844 381.960938 L 1478.671875 381.960938 L 1478.671875 383.636719 L 1507.152344 385.8125 C 1557.246094 393.519531 1601.644531 412.953125 1640.511719 443.949219 C 1692.28125 485.332031 1718.085938 535.761719 1718.085938 595.238281 C 1718.085938 639.46875 1703.675781 678.503906 1675.027344 712.515625 L 1648.722656 737.980469 L 1925.496094 737.980469 L 1926.335938 757.414062 C 1926.335938 916.746094 1871.046875 1051.78125 1760.472656 1162.859375 C 1663.800781 1259.867188 1548.535156 1314.484375 1414.671875 1326.714844 L 1382.335938 1328.222656 L 1382.335938 1221.835938 L 1386.523438 1221.5 L 1386.523438 382.128906 L 1455.214844 382.128906 Z M 1455.214844 381.960938 " fill-opacity="1" fill-rule="nonzero"/><path fill="#2ffaff" d="M 1354.1875 166.839844 L 1405.789062 169.015625 C 1544.179688 180.914062 1661.957031 234.859375 1759.132812 330.523438 C 1842.398438 412.617188 1894.503906 508.953125 1915.277344 619.363281 L 1923.488281 710.671875 L 1811.90625 710.671875 L 1809.5625 671.300781 C 1802.019531 609.980469 1783.089844 553.183594 1752.933594 501.078125 C 1712.722656 431.550781 1655.925781 375.929688 1582.878906 334.210938 C 1528.09375 302.878906 1470.628906 283.277344 1410.816406 275.570312 L 1354.1875 271.886719 Z M 1354.1875 166.839844 " fill-opacity="1" fill-rule="nonzero"/><path fill="#2ffaff" d="M 786.230469 738.984375 L 898.480469 738.984375 L 896.972656 763.277344 C 896.972656 892.117188 941.707031 1001.015625 1031.339844 1089.8125 C 1120.972656 1178.609375 1228.703125 1223.007812 1355.027344 1223.007812 L 1388.199219 1220.996094 L 1388.199219 1327.214844 L 1359.214844 1328.558594 C 1198.042969 1328.558594 1062 1273.4375 951.257812 1163.363281 C 840.511719 1053.289062 784.722656 919.929688 784.722656 763.613281 Z M 786.230469 738.984375 " fill-opacity="1" fill-rule="nonzero"/><g fill="#042732" fill-opacity="1"><g transform="translate(2151.359751, 593.032953)"><g><path d="M 104.1875 -253.953125 C 104.1875 -243.609375 108.191406 -235.34375 116.203125 -229.15625 C 124.222656 -222.976562 134.660156 -217.632812 147.515625 -213.125 C 160.367188 -208.625 173.972656 -203.867188 188.328125 -198.859375 C 202.691406 -193.847656 216.300781 -187.414062 229.15625 -179.5625 C 242.019531 -171.71875 252.457031 -161.203125 260.46875 -148.015625 C 268.488281 -134.828125 272.5 -117.710938 272.5 -96.671875 C 272.5 -75.296875 268.65625 -57.007812 260.96875 -41.8125 C 253.289062 -26.625 240.519531 -15.019531 222.65625 -7 C 204.789062 1.007812 180.828125 5.015625 150.765625 5.015625 C 122.046875 5.015625 98.671875 0.335938 80.640625 -9.015625 C 62.609375 -18.367188 49.164062 -30.640625 40.3125 -45.828125 C 31.46875 -61.023438 26.378906 -77.140625 25.046875 -94.171875 C 24.710938 -96.835938 25.546875 -99.253906 27.546875 -101.421875 C 29.554688 -103.597656 32.0625 -104.6875 35.0625 -104.6875 L 94.171875 -104.6875 C 100.179688 -104.6875 103.351562 -101.679688 103.6875 -95.671875 C 104.351562 -89.660156 106.101562 -82.976562 108.9375 -75.625 C 111.78125 -68.28125 116.457031 -61.851562 122.96875 -56.34375 C 129.476562 -50.84375 138.410156 -48.09375 149.765625 -48.09375 C 163.128906 -48.09375 172.898438 -50.34375 179.078125 -54.84375 C 185.253906 -59.351562 189.257812 -65.363281 191.09375 -72.875 C 192.925781 -80.394531 193.84375 -88.328125 193.84375 -96.671875 C 193.84375 -107.359375 189.753906 -115.875 181.578125 -122.21875 C 173.398438 -128.5625 162.878906 -133.988281 150.015625 -138.5 C 137.160156 -143.007812 123.550781 -147.769531 109.1875 -152.78125 C 94.832031 -157.789062 81.3125 -164.21875 68.625 -172.0625 C 55.9375 -179.90625 45.5 -190.335938 37.3125 -203.359375 C 29.132812 -216.390625 25.046875 -233.253906 25.046875 -253.953125 C 25.046875 -275.328125 28.96875 -293.609375 36.8125 -308.796875 C 44.664062 -323.992188 57.441406 -335.597656 75.140625 -343.609375 C 92.835938 -351.628906 116.878906 -355.640625 147.265625 -355.640625 C 175.648438 -355.640625 198.523438 -350.960938 215.890625 -341.609375 C 233.253906 -332.265625 246.109375 -319.992188 254.453125 -304.796875 C 262.804688 -289.609375 267.648438 -273.5 268.984375 -256.46875 C 268.984375 -253.789062 268.066406 -251.363281 266.234375 -249.1875 C 264.398438 -247.019531 261.976562 -245.9375 258.96875 -245.9375 L 199.859375 -245.9375 C 193.847656 -245.9375 190.507812 -248.945312 189.84375 -254.96875 C 189.507812 -260.976562 188.253906 -267.65625 186.078125 -275 C 183.910156 -282.34375 179.90625 -288.769531 174.0625 -294.28125 C 168.21875 -299.789062 159.617188 -302.546875 148.265625 -302.546875 C 134.910156 -302.546875 125.0625 -300.289062 118.71875 -295.78125 C 112.375 -291.269531 108.363281 -285.257812 106.6875 -277.75 C 105.019531 -270.238281 104.1875 -262.304688 104.1875 -253.953125 Z M 104.1875 -253.953125 " fill="#ffffff"/></g></g></g><g fill="#042732" fill-opacity="1"><g transform="translate(2449.332182, 593.032953)"><g><path d="M 258.46875 -350.640625 C 261.46875 -350.640625 263.882812 -349.632812 265.71875 -347.625 C 267.5625 -345.625 268.484375 -343.285156 268.484375 -340.609375 C 268.148438 -331.929688 267.734375 -318.828125 267.234375 -301.296875 C 266.734375 -283.765625 266.234375 -263.8125 265.734375 -241.4375 C 265.234375 -219.0625 264.816406 -195.9375 264.484375 -172.0625 C 264.148438 -148.1875 263.984375 -125.5625 263.984375 -104.1875 C 263.984375 -83.144531 260.472656 -64.359375 253.453125 -47.828125 C 246.441406 -31.304688 234.421875 -18.285156 217.390625 -8.765625 C 200.359375 0.753906 176.816406 5.515625 146.765625 5.515625 C 123.722656 5.515625 104.6875 2.425781 89.65625 -3.75 C 74.632812 -9.9375 62.695312 -18.285156 53.84375 -28.796875 C 45 -39.316406 38.738281 -51.085938 35.0625 -64.109375 C 31.382812 -77.140625 29.546875 -90.5 29.546875 -104.1875 C 29.546875 -125.5625 29.378906 -148.1875 29.046875 -172.0625 C 28.710938 -195.9375 28.296875 -219.0625 27.796875 -241.4375 C 27.296875 -263.8125 26.796875 -283.765625 26.296875 -301.296875 C 25.796875 -318.828125 25.378906 -331.929688 25.046875 -340.609375 C 25.046875 -343.285156 25.960938 -345.625 27.796875 -347.625 C 29.640625 -349.632812 32.0625 -350.640625 35.0625 -350.640625 L 93.671875 -350.640625 C 96.335938 -350.640625 98.671875 -349.632812 100.671875 -347.625 C 102.679688 -345.625 103.6875 -343.285156 103.6875 -340.609375 L 103.6875 -104.1875 C 103.6875 -101.1875 103.9375 -96.59375 104.4375 -90.40625 C 104.9375 -84.226562 106.4375 -77.882812 108.9375 -71.375 C 111.445312 -64.863281 115.625 -59.269531 121.46875 -54.59375 C 127.3125 -49.925781 135.410156 -47.59375 145.765625 -47.59375 C 159.117188 -47.59375 168.882812 -50.597656 175.0625 -56.609375 C 181.238281 -62.617188 185.242188 -69.960938 187.078125 -78.640625 C 188.921875 -87.328125 189.84375 -95.84375 189.84375 -104.1875 L 189.84375 -340.609375 C 189.84375 -343.285156 190.84375 -345.625 192.84375 -347.625 C 194.851562 -349.632812 197.191406 -350.640625 199.859375 -350.640625 Z M 258.46875 -350.640625 " fill="#ffffff"/></g></g></g><g fill="#042732" fill-opacity="1"><g transform="translate(2743.298254, 593.032953)"><g><path d="M 99.6875 -63.109375 C 99.6875 -60.441406 100.601562 -58.101562 102.4375 -56.09375 C 104.269531 -54.09375 106.523438 -53.09375 109.203125 -53.09375 L 206.875 -53.09375 C 209.539062 -53.09375 211.875 -52.085938 213.875 -50.078125 C 215.882812 -48.078125 216.890625 -45.742188 216.890625 -43.078125 L 216.890625 -10.015625 C 216.890625 -7.347656 215.882812 -5.007812 213.875 -3 C 211.875 -1 209.539062 0 206.875 0 L 35.0625 0 C 32.394531 0 30.054688 -1 28.046875 -3 C 26.046875 -5.007812 25.046875 -7.347656 25.046875 -10.015625 L 25.046875 -340.609375 C 25.046875 -343.285156 26.046875 -345.625 28.046875 -347.625 C 30.054688 -349.632812 32.394531 -350.640625 35.0625 -350.640625 L 93.671875 -350.640625 C 96.671875 -350.640625 99.085938 -349.632812 100.921875 -347.625 C 102.765625 -345.625 103.6875 -343.285156 103.6875 -340.609375 C 103.6875 -331.597656 103.4375 -317.488281 102.9375 -298.28125 C 102.4375 -279.082031 102.019531 -256.625 101.6875 -230.90625 C 101.351562 -205.195312 100.9375 -177.898438 100.4375 -149.015625 C 99.9375 -120.128906 99.6875 -91.492188 99.6875 -63.109375 Z M 99.6875 -63.109375 " fill="#ffffff"/></g></g></g><g fill="#042732" fill-opacity="1"><g transform="translate(2982.677685, 593.032953)"><g><path d="M 147.265625 -350.640625 C 177.984375 -350.640625 202.191406 -346.210938 219.890625 -337.359375 C 237.597656 -328.515625 250.289062 -315.910156 257.96875 -299.546875 C 265.644531 -283.179688 269.484375 -263.644531 269.484375 -240.9375 C 269.484375 -217.894531 265.644531 -198.523438 257.96875 -182.828125 C 250.289062 -167.128906 237.597656 -155.273438 219.890625 -147.265625 C 202.191406 -139.253906 177.984375 -135.25 147.265625 -135.25 L 110.703125 -135.25 C 108.023438 -135.25 105.6875 -134.242188 103.6875 -132.234375 C 101.6875 -130.234375 100.851562 -127.894531 101.1875 -125.21875 C 101.1875 -95.832031 101.4375 -71.457031 101.9375 -52.09375 C 102.4375 -32.726562 102.851562 -18.703125 103.1875 -10.015625 C 103.1875 -7.347656 102.265625 -5.007812 100.421875 -3 C 98.585938 -1 96.171875 0 93.171875 0 L 35.0625 0 C 32.0625 0 29.640625 -1 27.796875 -3 C 25.960938 -5.007812 25.046875 -7.347656 25.046875 -10.015625 C 25.378906 -21.035156 25.878906 -40.488281 26.546875 -68.375 C 27.210938 -96.257812 27.546875 -131.90625 27.546875 -175.3125 C 27.546875 -219.0625 27.210938 -254.796875 26.546875 -282.515625 C 25.878906 -310.234375 25.378906 -329.597656 25.046875 -340.609375 C 25.046875 -343.285156 25.960938 -345.625 27.796875 -347.625 C 29.640625 -349.632812 32.0625 -350.640625 35.0625 -350.640625 Z M 148.265625 -188.34375 C 161.960938 -188.34375 171.816406 -191.097656 177.828125 -196.609375 C 183.835938 -202.117188 187.425781 -208.960938 188.59375 -217.140625 C 189.757812 -225.328125 190.34375 -233.257812 190.34375 -240.9375 C 190.34375 -248.28125 189.757812 -256.375 188.59375 -265.21875 C 187.425781 -274.070312 183.835938 -281.671875 177.828125 -288.015625 C 171.816406 -294.359375 161.960938 -297.53125 148.265625 -297.53125 L 111.703125 -297.53125 C 109.023438 -297.53125 106.6875 -296.613281 104.6875 -294.78125 C 102.6875 -292.945312 101.6875 -290.691406 101.6875 -288.015625 C 101.6875 -275.992188 101.519531 -262.550781 101.1875 -247.6875 C 100.851562 -232.832031 100.6875 -216.390625 100.6875 -198.359375 C 100.6875 -195.347656 101.6875 -192.925781 103.6875 -191.09375 C 105.6875 -189.257812 108.023438 -188.34375 110.703125 -188.34375 Z M 148.265625 -188.34375 " fill="#ffffff"/></g></g></g><g fill="#042732" fill-opacity="1"><g transform="translate(3277.144585, 593.032953)"><g><path d="M 259.46875 -350.640625 C 262.144531 -350.640625 264.484375 -349.632812 266.484375 -347.625 C 268.484375 -345.625 269.316406 -343.285156 268.984375 -340.609375 C 268.648438 -329.597656 268.148438 -310.234375 267.484375 -282.515625 C 266.816406 -254.796875 266.484375 -219.0625 266.484375 -175.3125 C 266.484375 -131.90625 266.816406 -96.257812 267.484375 -68.375 C 268.148438 -40.488281 268.648438 -21.035156 268.984375 -10.015625 C 269.316406 -7.347656 268.484375 -5.007812 266.484375 -3 C 264.484375 -1 262.144531 0 259.46875 0 L 200.859375 0 C 198.191406 0 195.851562 -1 193.84375 -3 C 191.84375 -5.007812 190.84375 -7.347656 190.84375 -10.015625 C 191.175781 -19.367188 191.59375 -34.894531 192.09375 -56.59375 C 192.59375 -78.300781 193.007812 -105.6875 193.34375 -138.75 C 193.34375 -141.425781 192.34375 -143.765625 190.34375 -145.765625 C 188.34375 -147.765625 186.003906 -148.765625 183.328125 -148.765625 L 110.703125 -148.765625 C 108.023438 -148.765625 105.6875 -147.765625 103.6875 -145.765625 C 101.6875 -143.765625 100.6875 -141.425781 100.6875 -138.75 C 101.019531 -105.6875 101.4375 -78.300781 101.9375 -56.59375 C 102.4375 -34.894531 102.851562 -19.367188 103.1875 -10.015625 C 103.1875 -7.347656 102.265625 -5.007812 100.421875 -3 C 98.585938 -1 96.171875 0 93.171875 0 L 35.0625 0 C 32.0625 0 29.640625 -1 27.796875 -3 C 25.960938 -5.007812 25.046875 -7.347656 25.046875 -10.015625 C 25.378906 -21.035156 25.878906 -40.488281 26.546875 -68.375 C 27.210938 -96.257812 27.546875 -131.90625 27.546875 -175.3125 C 27.546875 -219.0625 27.210938 -254.796875 26.546875 -282.515625 C 25.878906 -310.234375 25.378906 -329.597656 25.046875 -340.609375 C 25.046875 -343.285156 25.960938 -345.625 27.796875 -347.625 C 29.640625 -349.632812 32.0625 -350.640625 35.0625 -350.640625 L 93.171875 -350.640625 C 96.171875 -350.640625 98.585938 -349.632812 100.421875 -347.625 C 102.265625 -345.625 103.1875 -343.285156 103.1875 -340.609375 C 102.851562 -331.265625 102.4375 -315.738281 101.9375 -294.03125 C 101.4375 -272.320312 101.019531 -244.941406 100.6875 -211.890625 C 100.6875 -209.210938 101.6875 -206.867188 103.6875 -204.859375 C 105.6875 -202.859375 108.023438 -201.859375 110.703125 -201.859375 L 183.328125 -201.859375 C 186.003906 -201.859375 188.34375 -202.859375 190.34375 -204.859375 C 192.34375 -206.867188 193.34375 -209.210938 193.34375 -211.890625 C 193.007812 -244.941406 192.59375 -272.320312 192.09375 -294.03125 C 191.59375 -315.738281 191.175781 -331.265625 190.84375 -340.609375 C 190.84375 -343.285156 191.84375 -345.625 193.84375 -347.625 C 195.851562 -349.632812 198.191406 -350.640625 200.859375 -350.640625 Z M 259.46875 -350.640625 " fill="#ffffff"/></g></g></g><g fill="#042732" fill-opacity="1"><g transform="translate(3571.611485, 593.032953)"><g><path d="M 258.46875 -350.640625 C 261.46875 -350.640625 263.882812 -349.632812 265.71875 -347.625 C 267.5625 -345.625 268.484375 -343.285156 268.484375 -340.609375 C 268.148438 -331.929688 267.734375 -318.828125 267.234375 -301.296875 C 266.734375 -283.765625 266.234375 -263.8125 265.734375 -241.4375 C 265.234375 -219.0625 264.816406 -195.9375 264.484375 -172.0625 C 264.148438 -148.1875 263.984375 -125.5625 263.984375 -104.1875 C 263.984375 -83.144531 260.472656 -64.359375 253.453125 -47.828125 C 246.441406 -31.304688 234.421875 -18.285156 217.390625 -8.765625 C 200.359375 0.753906 176.816406 5.515625 146.765625 5.515625 C 123.722656 5.515625 104.6875 2.425781 89.65625 -3.75 C 74.632812 -9.9375 62.695312 -18.285156 53.84375 -28.796875 C 45 -39.316406 38.738281 -51.085938 35.0625 -64.109375 C 31.382812 -77.140625 29.546875 -90.5 29.546875 -104.1875 C 29.546875 -125.5625 29.378906 -148.1875 29.046875 -172.0625 C 28.710938 -195.9375 28.296875 -219.0625 27.796875 -241.4375 C 27.296875 -263.8125 26.796875 -283.765625 26.296875 -301.296875 C 25.796875 -318.828125 25.378906 -331.929688 25.046875 -340.609375 C 25.046875 -343.285156 25.960938 -345.625 27.796875 -347.625 C 29.640625 -349.632812 32.0625 -350.640625 35.0625 -350.640625 L 93.671875 -350.640625 C 96.335938 -350.640625 98.671875 -349.632812 100.671875 -347.625 C 102.679688 -345.625 103.6875 -343.285156 103.6875 -340.609375 L 103.6875 -104.1875 C 103.6875 -101.1875 103.9375 -96.59375 104.4375 -90.40625 C 104.9375 -84.226562 106.4375 -77.882812 108.9375 -71.375 C 111.445312 -64.863281 115.625 -59.269531 121.46875 -54.59375 C 127.3125 -49.925781 135.410156 -47.59375 145.765625 -47.59375 C 159.117188 -47.59375 168.882812 -50.597656 175.0625 -56.609375 C 181.238281 -62.617188 185.242188 -69.960938 187.078125 -78.640625 C 188.921875 -87.328125 189.84375 -95.84375 189.84375 -104.1875 L 189.84375 -340.609375 C 189.84375 -343.285156 190.84375 -345.625 192.84375 -347.625 C 194.851562 -349.632812 197.191406 -350.640625 199.859375 -350.640625 Z M 258.46875 -350.640625 " fill="#ffffff"/></g></g></g><g fill="#042732" fill-opacity="1"><g transform="translate(3865.577557, 593.032953)"><g><path d="M 257.46875 0 L 193.84375 0 C 191.175781 0 188.835938 -1 186.828125 -3 C 184.828125 -5.007812 183.828125 -7.347656 183.828125 -10.015625 L 183.828125 -87.15625 C 183.828125 -94.832031 182.65625 -102.34375 180.3125 -109.6875 C 177.976562 -117.039062 173.722656 -123.140625 167.546875 -127.984375 C 161.367188 -132.828125 152.769531 -135.25 141.75 -135.25 L 110.703125 -135.25 C 108.023438 -135.25 105.6875 -134.242188 103.6875 -132.234375 C 101.6875 -130.234375 100.851562 -127.894531 101.1875 -125.21875 C 101.1875 -95.832031 101.4375 -71.457031 101.9375 -52.09375 C 102.4375 -32.726562 102.851562 -18.703125 103.1875 -10.015625 C 103.1875 -7.347656 102.265625 -5.007812 100.421875 -3 C 98.585938 -1 96.171875 0 93.171875 0 L 35.0625 0 C 32.0625 0 29.640625 -1 27.796875 -3 C 25.960938 -5.007812 25.046875 -7.347656 25.046875 -10.015625 C 25.378906 -21.035156 25.878906 -40.488281 26.546875 -68.375 C 27.210938 -96.257812 27.546875 -131.90625 27.546875 -175.3125 C 27.546875 -219.0625 27.210938 -254.796875 26.546875 -282.515625 C 25.878906 -310.234375 25.378906 -329.597656 25.046875 -340.609375 C 25.046875 -343.285156 25.960938 -345.625 27.796875 -347.625 C 29.640625 -349.632812 32.0625 -350.640625 35.0625 -350.640625 L 143.765625 -350.640625 C 160.117188 -350.640625 175.644531 -349.132812 190.34375 -346.125 C 205.039062 -343.125 218.066406 -337.78125 229.421875 -330.09375 C 240.773438 -322.414062 249.707031 -311.726562 256.21875 -298.03125 C 262.726562 -284.34375 265.984375 -266.8125 265.984375 -245.4375 C 265.984375 -225.738281 261.554688 -209.460938 252.703125 -196.609375 C 243.859375 -183.753906 232.421875 -173.648438 218.390625 -166.296875 C 217.054688 -165.628906 216.390625 -164.460938 216.390625 -162.796875 C 216.390625 -161.128906 217.222656 -159.789062 218.890625 -158.78125 C 231.585938 -152.769531 242.109375 -144.003906 250.453125 -132.484375 C 258.796875 -120.960938 262.96875 -105.851562 262.96875 -87.15625 C 262.96875 -69.125 263.46875 -53.675781 264.46875 -40.8125 C 265.476562 -27.957031 266.484375 -18.023438 267.484375 -11.015625 C 267.816406 -8.015625 266.976562 -5.425781 264.96875 -3.25 C 262.96875 -1.082031 260.46875 0 257.46875 0 Z M 144.765625 -297.53125 L 111.703125 -297.53125 C 109.023438 -297.53125 106.6875 -296.613281 104.6875 -294.78125 C 102.6875 -292.945312 101.6875 -290.691406 101.6875 -288.015625 C 101.6875 -275.992188 101.519531 -262.550781 101.1875 -247.6875 C 100.851562 -232.832031 100.6875 -216.390625 100.6875 -198.359375 C 100.6875 -195.347656 101.6875 -192.925781 103.6875 -191.09375 C 105.6875 -189.257812 108.023438 -188.34375 110.703125 -188.34375 L 144.765625 -188.34375 C 155.785156 -188.34375 164.382812 -191.515625 170.5625 -197.859375 C 176.738281 -204.203125 180.992188 -211.796875 183.328125 -220.640625 C 185.671875 -229.492188 186.84375 -237.757812 186.84375 -245.4375 C 186.84375 -258.800781 184.421875 -269.238281 179.578125 -276.75 C 174.734375 -284.257812 169.054688 -289.597656 162.546875 -292.765625 C 156.035156 -295.941406 150.109375 -297.53125 144.765625 -297.53125 Z M 144.765625 -297.53125 " fill="#ffffff"/></g></g></g><g fill="#042732" fill-opacity="1"><g transform="translate(4158.041184, 593.032953)"><g><path d="M 103.1875 -10.015625 C 103.1875 -7.347656 102.265625 -5.007812 100.421875 -3 C 98.585938 -1 96.171875 0 93.171875 0 L 35.0625 0 C 32.0625 0 29.640625 -1 27.796875 -3 C 25.960938 -5.007812 25.046875 -7.347656 25.046875 -10.015625 C 25.378906 -21.035156 25.878906 -40.488281 26.546875 -68.375 C 27.210938 -96.257812 27.546875 -131.90625 27.546875 -175.3125 C 27.546875 -219.0625 27.210938 -254.796875 26.546875 -282.515625 C 25.878906 -310.234375 25.378906 -329.597656 25.046875 -340.609375 C 25.046875 -343.285156 25.960938 -345.625 27.796875 -347.625 C 29.640625 -349.632812 32.0625 -350.640625 35.0625 -350.640625 L 93.171875 -350.640625 C 96.171875 -350.640625 98.585938 -349.632812 100.421875 -347.625 C 102.265625 -345.625 103.1875 -343.285156 103.1875 -340.609375 C 102.851562 -329.597656 102.351562 -310.234375 101.6875 -282.515625 C 101.019531 -254.796875 100.6875 -219.0625 100.6875 -175.3125 C 100.6875 -131.90625 101.019531 -96.257812 101.6875 -68.375 C 102.351562 -40.488281 102.851562 -21.035156 103.1875 -10.015625 Z M 103.1875 -10.015625 " fill="#ffffff"/></g></g></g><g fill="#042732" fill-opacity="1"><g transform="translate(4286.244417, 593.032953)"><g><path d="M 146.265625 -48.59375 C 157.953125 -48.59375 167.132812 -51.007812 173.8125 -55.84375 C 180.488281 -60.6875 185.242188 -66.695312 188.078125 -73.875 C 190.921875 -81.0625 192.675781 -88.492188 193.34375 -96.171875 C 194.019531 -102.515625 197.363281 -105.6875 203.375 -105.6875 L 258.96875 -105.6875 C 261.976562 -105.6875 264.398438 -104.597656 266.234375 -102.421875 C 268.066406 -100.253906 268.984375 -97.835938 268.984375 -95.171875 C 267.648438 -75.804688 262.804688 -58.609375 254.453125 -43.578125 C 246.109375 -28.546875 233.253906 -16.769531 215.890625 -8.25 C 198.523438 0.257812 175.648438 4.515625 147.265625 4.515625 C 116.546875 4.515625 92.253906 -0.828125 74.390625 -11.515625 C 56.523438 -22.203125 43.832031 -35.976562 36.3125 -52.84375 C 28.800781 -69.707031 25.046875 -87.320312 25.046875 -105.6875 C 25.046875 -112.695312 25.210938 -119.375 25.546875 -125.71875 C 25.878906 -132.070312 26.296875 -139.085938 26.796875 -146.765625 C 27.296875 -154.441406 27.546875 -163.957031 27.546875 -175.3125 C 27.546875 -186.664062 27.296875 -196.179688 26.796875 -203.859375 C 26.296875 -211.546875 25.878906 -218.5625 25.546875 -224.90625 C 25.210938 -231.25 25.046875 -237.925781 25.046875 -244.9375 C 25.046875 -266.3125 28.96875 -285.265625 36.8125 -301.796875 C 44.664062 -318.328125 57.441406 -331.347656 75.140625 -340.859375 C 92.835938 -350.378906 116.878906 -355.140625 147.265625 -355.140625 C 175.648438 -355.140625 198.523438 -350.378906 215.890625 -340.859375 C 233.253906 -331.347656 246.109375 -319.078125 254.453125 -304.046875 C 262.804688 -289.023438 267.648438 -273 268.984375 -255.96875 C 268.984375 -252.957031 268.066406 -250.363281 266.234375 -248.1875 C 264.398438 -246.019531 261.976562 -244.9375 258.96875 -244.9375 L 199.859375 -244.9375 C 193.847656 -244.9375 190.507812 -248.109375 189.84375 -254.453125 C 189.507812 -260.128906 188.253906 -266.722656 186.078125 -274.234375 C 183.910156 -281.753906 179.90625 -288.269531 174.0625 -293.78125 C 168.21875 -299.289062 159.617188 -302.046875 148.265625 -302.046875 C 134.910156 -302.046875 125.0625 -299.039062 118.71875 -293.03125 C 112.375 -287.019531 108.363281 -279.585938 106.6875 -270.734375 C 105.019531 -261.890625 104.1875 -253.289062 104.1875 -244.9375 L 104.1875 -105.6875 C 104.1875 -102.6875 104.4375 -98.097656 104.9375 -91.921875 C 105.4375 -85.742188 106.9375 -79.3125 109.4375 -72.625 C 111.945312 -65.945312 116.125 -60.269531 121.96875 -55.59375 C 127.8125 -50.925781 135.910156 -48.59375 146.265625 -48.59375 Z M 146.265625 -48.59375 " fill="#ffffff"/></g></g></g><g fill="#042732" fill-opacity="1"><g transform="translate(2154.403056, 1294.650444)"><g><path d="M 348.109375 -274.484375 C 374.253906 -267.546875 394.523438 -255.539062 408.921875 -238.46875 C 423.328125 -221.394531 430.53125 -195.789062 430.53125 -161.65625 C 430.53125 -126.976562 425.328125 -99.101562 414.921875 -78.03125 C 404.523438 -56.957031 390.253906 -40.679688 372.109375 -29.203125 C 353.972656 -17.734375 333.164062 -10 309.6875 -6 C 286.21875 -2 261.414062 0 235.28125 0 L 56.015625 0 C 51.210938 0 47.34375 -1.597656 44.40625 -4.796875 C 41.476562 -8.003906 40.015625 -11.738281 40.015625 -16 C 40.546875 -33.601562 41.34375 -64.679688 42.40625 -109.234375 C 43.476562 -153.785156 44.015625 -210.738281 44.015625 -280.09375 C 44.015625 -349.976562 43.476562 -407.054688 42.40625 -451.328125 C 41.34375 -495.609375 40.546875 -526.550781 40.015625 -544.15625 C 40.015625 -548.425781 41.476562 -552.160156 44.40625 -555.359375 C 47.34375 -558.554688 51.210938 -560.15625 56.015625 -560.15625 L 229.671875 -560.15625 C 255.816406 -560.15625 280.625 -558.15625 304.09375 -554.15625 C 327.570312 -550.15625 348.378906 -542.421875 366.515625 -530.953125 C 384.648438 -519.484375 398.921875 -503.210938 409.328125 -482.140625 C 419.734375 -461.078125 424.9375 -433.207031 424.9375 -398.53125 C 424.9375 -365.445312 418.265625 -340.367188 404.921875 -323.296875 C 391.585938 -306.222656 372.648438 -294.222656 348.109375 -287.296875 C 344.910156 -286.222656 343.3125 -284.085938 343.3125 -280.890625 C 343.3125 -277.691406 344.910156 -275.554688 348.109375 -274.484375 Z M 231.265625 -475.34375 L 178.453125 -475.34375 C 174.179688 -475.34375 170.445312 -473.875 167.25 -470.9375 C 164.050781 -468.007812 162.453125 -464.410156 162.453125 -460.140625 C 162.453125 -443.609375 162.316406 -425.203125 162.046875 -404.921875 C 161.785156 -384.648438 161.382812 -362.507812 160.84375 -338.5 C 160.84375 -334.238281 162.441406 -330.503906 165.640625 -327.296875 C 168.847656 -324.097656 172.585938 -322.5 176.859375 -322.5 L 231.265625 -322.5 C 248.878906 -322.5 262.617188 -326.363281 272.484375 -334.09375 C 282.359375 -341.832031 289.160156 -351.570312 292.890625 -363.3125 C 296.628906 -375.050781 298.5 -387.054688 298.5 -399.328125 C 298.5 -420.660156 294.628906 -436.796875 286.890625 -447.734375 C 279.148438 -458.671875 270.078125 -466.003906 259.671875 -469.734375 C 249.273438 -473.472656 239.804688 -475.34375 231.265625 -475.34375 Z M 236.875 -84.828125 C 244.875 -84.828125 254.207031 -86.691406 264.875 -90.421875 C 275.550781 -94.160156 284.753906 -101.5 292.484375 -112.4375 C 300.222656 -123.375 304.09375 -139.78125 304.09375 -161.65625 C 304.09375 -173.382812 302.222656 -185.117188 298.484375 -196.859375 C 294.753906 -208.597656 287.953125 -218.332031 278.078125 -226.0625 C 268.210938 -233.800781 254.476562 -237.671875 236.875 -237.671875 L 176.859375 -237.671875 C 172.585938 -237.671875 168.847656 -236.070312 165.640625 -232.875 C 162.441406 -229.675781 160.84375 -225.941406 160.84375 -221.671875 C 161.382812 -197.660156 161.785156 -175.519531 162.046875 -155.25 C 162.316406 -134.976562 162.453125 -116.570312 162.453125 -100.03125 C 162.453125 -95.757812 164.050781 -92.15625 167.25 -89.21875 C 170.445312 -86.289062 174.179688 -84.828125 178.453125 -84.828125 Z M 236.875 -84.828125 " fill="#ffffff"/></g></g></g><g fill="#042732" fill-opacity="1"><g transform="translate(2624.949281, 1294.650444)"><g><path d="M 403.328125 -491.359375 C 403.328125 -487.085938 401.859375 -483.347656 398.921875 -480.140625 C 395.984375 -476.941406 392.117188 -475.34375 387.328125 -475.34375 L 178.453125 -475.34375 C 174.179688 -475.34375 170.445312 -473.875 167.25 -470.9375 C 164.050781 -468.007812 162.453125 -464.410156 162.453125 -460.140625 C 162.453125 -443.609375 162.316406 -425.203125 162.046875 -404.921875 C 161.785156 -384.648438 161.382812 -362.507812 160.84375 -338.5 C 160.84375 -334.238281 162.441406 -330.503906 165.640625 -327.296875 C 168.847656 -324.097656 172.585938 -322.5 176.859375 -322.5 L 345.703125 -322.5 C 349.972656 -322.5 353.707031 -320.894531 356.90625 -317.6875 C 360.113281 -314.488281 361.71875 -310.757812 361.71875 -306.5 L 361.71875 -253.671875 C 361.71875 -249.410156 360.113281 -245.675781 356.90625 -242.46875 C 353.707031 -239.269531 349.972656 -237.671875 345.703125 -237.671875 L 176.859375 -237.671875 C 172.585938 -237.671875 168.847656 -236.070312 165.640625 -232.875 C 162.441406 -229.675781 160.84375 -225.941406 160.84375 -221.671875 C 161.382812 -197.660156 161.785156 -175.519531 162.046875 -155.25 C 162.316406 -134.976562 162.453125 -116.570312 162.453125 -100.03125 C 162.453125 -95.757812 164.050781 -92.15625 167.25 -89.21875 C 170.445312 -86.289062 174.179688 -84.828125 178.453125 -84.828125 L 387.328125 -84.828125 C 392.117188 -84.828125 395.984375 -83.222656 398.921875 -80.015625 C 401.859375 -76.816406 403.328125 -73.085938 403.328125 -68.828125 L 403.328125 -16 C 403.328125 -11.738281 401.859375 -8.003906 398.921875 -4.796875 C 395.984375 -1.597656 392.117188 0 387.328125 0 L 56.015625 0 C 51.210938 0 47.34375 -1.597656 44.40625 -4.796875 C 41.476562 -8.003906 40.015625 -11.738281 40.015625 -16 C 40.546875 -33.601562 41.34375 -64.679688 42.40625 -109.234375 C 43.476562 -153.785156 44.015625 -210.738281 44.015625 -280.09375 C 44.015625 -349.976562 43.476562 -407.054688 42.40625 -451.328125 C 41.34375 -495.609375 40.546875 -526.550781 40.015625 -544.15625 C 40.015625 -548.425781 41.476562 -552.160156 44.40625 -555.359375 C 47.34375 -558.554688 51.210938 -560.15625 56.015625 -560.15625 L 387.328125 -560.15625 C 392.117188 -560.15625 395.984375 -558.554688 398.921875 -555.359375 C 401.859375 -552.160156 403.328125 -548.425781 403.328125 -544.15625 Z M 403.328125 -491.359375 " fill="#ffffff"/></g></g></g><g fill="#042732" fill-opacity="1"><g transform="translate(3069.087302, 1294.650444)"><g><path d="M 434.53125 -280.09375 C 434.53125 -210.738281 434.929688 -153.785156 435.734375 -109.234375 C 436.535156 -64.679688 437.46875 -33.601562 438.53125 -16 C 438.53125 -11.738281 436.929688 -8.003906 433.734375 -4.796875 C 430.535156 -1.597656 426.800781 0 422.53125 0 L 254.484375 0 C 244.878906 0 239.539062 -4.535156 238.46875 -13.609375 C 236.34375 -30.140625 231.675781 -60.8125 224.46875 -105.625 C 217.269531 -150.445312 207.535156 -208.601562 195.265625 -280.09375 C 191.523438 -300.894531 187.921875 -320.5 184.453125 -338.90625 C 180.984375 -357.3125 177.648438 -374.515625 174.453125 -390.515625 C 173.921875 -394.785156 171.65625 -396.65625 167.65625 -396.125 C 163.65625 -395.59375 161.65625 -393.457031 161.65625 -389.71875 C 161.65625 -373.71875 161.519531 -356.644531 161.25 -338.5 C 160.976562 -320.363281 160.84375 -300.894531 160.84375 -280.09375 C 160.84375 -210.738281 161.375 -153.785156 162.4375 -109.234375 C 163.507812 -64.679688 164.3125 -33.601562 164.84375 -16 C 164.84375 -11.738281 163.375 -8.003906 160.4375 -4.796875 C 157.507812 -1.597656 153.644531 0 148.84375 0 L 56.015625 0 C 51.210938 0 47.34375 -1.597656 44.40625 -4.796875 C 41.476562 -8.003906 40.015625 -11.738281 40.015625 -16 C 40.546875 -33.601562 41.34375 -64.679688 42.40625 -109.234375 C 43.476562 -153.785156 44.015625 -210.738281 44.015625 -280.09375 C 44.015625 -349.976562 43.476562 -407.054688 42.40625 -451.328125 C 41.34375 -495.609375 40.546875 -526.550781 40.015625 -544.15625 C 40.015625 -548.425781 41.476562 -552.160156 44.40625 -555.359375 C 47.34375 -558.554688 51.210938 -560.15625 56.015625 -560.15625 L 224.0625 -560.15625 C 233.132812 -560.15625 238.472656 -555.625 240.078125 -546.5625 C 242.210938 -530.550781 246.742188 -500.007812 253.671875 -454.9375 C 260.609375 -409.863281 270.476562 -351.582031 283.28125 -280.09375 C 287.019531 -259.8125 290.625 -240.332031 294.09375 -221.65625 C 297.5625 -202.988281 300.628906 -185.65625 303.296875 -169.65625 C 304.359375 -165.382812 306.890625 -163.515625 310.890625 -164.046875 C 314.898438 -164.578125 316.90625 -166.710938 316.90625 -170.453125 C 316.90625 -186.453125 317.035156 -203.65625 317.296875 -222.0625 C 317.566406 -240.46875 317.703125 -259.8125 317.703125 -280.09375 C 317.703125 -349.976562 317.164062 -407.054688 316.09375 -451.328125 C 315.03125 -495.609375 314.234375 -526.550781 313.703125 -544.15625 C 313.160156 -548.425781 314.488281 -552.160156 317.6875 -555.359375 C 320.894531 -558.554688 324.632812 -560.15625 328.90625 -560.15625 L 422.53125 -560.15625 C 426.800781 -560.15625 430.535156 -558.554688 433.734375 -555.359375 C 436.929688 -552.160156 438.53125 -548.425781 438.53125 -544.15625 C 437.46875 -526.550781 436.535156 -495.609375 435.734375 -451.328125 C 434.929688 -407.054688 434.53125 -349.976562 434.53125 -280.09375 Z M 434.53125 -280.09375 " fill="#ffffff"/></g></g></g><g fill="#042732" fill-opacity="1"><g transform="translate(3547.636056, 1294.650444)"><g><path d="M 233.671875 -77.625 C 252.347656 -77.625 267.019531 -81.488281 277.6875 -89.21875 C 288.351562 -96.957031 295.953125 -106.5625 300.484375 -118.03125 C 305.023438 -129.507812 307.828125 -141.378906 308.890625 -153.640625 C 309.960938 -163.785156 315.300781 -168.859375 324.90625 -168.859375 L 413.734375 -168.859375 C 418.535156 -168.859375 422.398438 -167.125 425.328125 -163.65625 C 428.265625 -160.1875 429.734375 -156.316406 429.734375 -152.046875 C 427.597656 -121.109375 419.859375 -93.632812 406.515625 -69.625 C 393.179688 -45.613281 372.644531 -26.804688 344.90625 -13.203125 C 317.164062 0.398438 280.625 7.203125 235.28125 7.203125 C 186.195312 7.203125 147.382812 -1.332031 118.84375 -18.40625 C 90.300781 -35.476562 70.023438 -57.484375 58.015625 -84.421875 C 46.015625 -111.367188 40.015625 -139.515625 40.015625 -168.859375 C 40.015625 -180.054688 40.28125 -190.722656 40.8125 -200.859375 C 41.34375 -210.992188 42.007812 -222.195312 42.8125 -234.46875 C 43.613281 -246.738281 44.015625 -261.945312 44.015625 -280.09375 C 44.015625 -298.226562 43.613281 -313.429688 42.8125 -325.703125 C 42.007812 -337.972656 41.34375 -349.175781 40.8125 -359.3125 C 40.28125 -369.445312 40.015625 -380.117188 40.015625 -391.328125 C 40.015625 -425.460938 46.28125 -455.734375 58.8125 -482.140625 C 71.351562 -508.546875 91.757812 -529.347656 120.03125 -544.546875 C 148.3125 -559.753906 186.726562 -567.359375 235.28125 -567.359375 C 280.625 -567.359375 317.164062 -559.753906 344.90625 -544.546875 C 372.644531 -529.347656 393.179688 -509.742188 406.515625 -485.734375 C 419.859375 -461.734375 427.597656 -436.128906 429.734375 -408.921875 C 429.734375 -404.117188 428.265625 -399.984375 425.328125 -396.515625 C 422.398438 -393.054688 418.535156 -391.328125 413.734375 -391.328125 L 319.296875 -391.328125 C 309.691406 -391.328125 304.359375 -396.394531 303.296875 -406.53125 C 302.765625 -415.59375 300.765625 -426.125 297.296875 -438.125 C 293.828125 -450.132812 287.421875 -460.539062 278.078125 -469.34375 C 268.742188 -478.144531 255.007812 -482.546875 236.875 -482.546875 C 215.53125 -482.546875 199.789062 -477.742188 189.65625 -468.140625 C 179.519531 -458.535156 173.117188 -446.664062 170.453125 -432.53125 C 167.785156 -418.394531 166.453125 -404.660156 166.453125 -391.328125 L 166.453125 -168.859375 C 166.453125 -164.054688 166.851562 -156.71875 167.65625 -146.84375 C 168.457031 -136.976562 170.859375 -126.707031 174.859375 -116.03125 C 178.859375 -105.363281 185.523438 -96.296875 194.859375 -88.828125 C 204.191406 -81.359375 217.128906 -77.625 233.671875 -77.625 Z M 233.671875 -77.625 " fill="#ffffff"/></g></g></g><g fill="#042732" fill-opacity="1"><g transform="translate(4017.382016, 1294.650444)"><g><path d="M 414.53125 -560.15625 C 418.800781 -560.15625 422.535156 -558.554688 425.734375 -555.359375 C 428.929688 -552.160156 430.265625 -548.425781 429.734375 -544.15625 C 429.203125 -526.550781 428.398438 -495.609375 427.328125 -451.328125 C 426.265625 -407.054688 425.734375 -349.976562 425.734375 -280.09375 C 425.734375 -210.738281 426.265625 -153.785156 427.328125 -109.234375 C 428.398438 -64.679688 429.203125 -33.601562 429.734375 -16 C 430.265625 -11.738281 428.929688 -8.003906 425.734375 -4.796875 C 422.535156 -1.597656 418.800781 0 414.53125 0 L 320.90625 0 C 316.632812 0 312.894531 -1.597656 309.6875 -4.796875 C 306.488281 -8.003906 304.890625 -11.738281 304.890625 -16 C 305.429688 -30.9375 306.097656 -55.742188 306.890625 -90.421875 C 307.691406 -125.097656 308.359375 -168.847656 308.890625 -221.671875 C 308.890625 -225.941406 307.289062 -229.675781 304.09375 -232.875 C 300.894531 -236.070312 297.160156 -237.671875 292.890625 -237.671875 L 176.859375 -237.671875 C 172.585938 -237.671875 168.847656 -236.070312 165.640625 -232.875 C 162.441406 -229.675781 160.84375 -225.941406 160.84375 -221.671875 C 161.382812 -168.847656 162.050781 -125.097656 162.84375 -90.421875 C 163.644531 -55.742188 164.3125 -30.9375 164.84375 -16 C 164.84375 -11.738281 163.375 -8.003906 160.4375 -4.796875 C 157.507812 -1.597656 153.644531 0 148.84375 0 L 56.015625 0 C 51.210938 0 47.34375 -1.597656 44.40625 -4.796875 C 41.476562 -8.003906 40.015625 -11.738281 40.015625 -16 C 40.546875 -33.601562 41.34375 -64.679688 42.40625 -109.234375 C 43.476562 -153.785156 44.015625 -210.738281 44.015625 -280.09375 C 44.015625 -349.976562 43.476562 -407.054688 42.40625 -451.328125 C 41.34375 -495.609375 40.546875 -526.550781 40.015625 -544.15625 C 40.015625 -548.425781 41.476562 -552.160156 44.40625 -555.359375 C 47.34375 -558.554688 51.210938 -560.15625 56.015625 -560.15625 L 148.84375 -560.15625 C 153.644531 -560.15625 157.507812 -558.554688 160.4375 -555.359375 C 163.375 -552.160156 164.84375 -548.425781 164.84375 -544.15625 C 164.3125 -529.21875 163.644531 -504.410156 162.84375 -469.734375 C 162.050781 -435.066406 161.382812 -391.320312 160.84375 -338.5 C 160.84375 -334.238281 162.441406 -330.503906 165.640625 -327.296875 C 168.847656 -324.097656 172.585938 -322.5 176.859375 -322.5 L 292.890625 -322.5 C 297.160156 -322.5 300.894531 -324.097656 304.09375 -327.296875 C 307.289062 -330.503906 308.890625 -334.238281 308.890625 -338.5 C 308.359375 -391.320312 307.691406 -435.066406 306.890625 -469.734375 C 306.097656 -504.410156 305.429688 -529.21875 304.890625 -544.15625 C 304.890625 -548.425781 306.488281 -552.160156 309.6875 -555.359375 C 312.894531 -558.554688 316.632812 -560.15625 320.90625 -560.15625 Z M 414.53125 -560.15625 " fill="#ffffff"/></g></g></g></svg>